<svg width="11" height="12" viewBox="0 0 11 12" fill="none" xmlns="http://www.w3.org/2000/svg">
<path d="M0.512781 12C0.241347 12 0 11.7558 0 11.4833C0 11.2126 0.241347 11.0026 0.512781 11.0026H0.700587V1.37412C0.700587 0.48485 1.19199 0 2.06918 0H6.73441C7.62196 0 8.103 0.48485 8.103 1.37412V8.77943H9.64611C9.95972 8.77943 10.1326 8.62297 10.1326 8.29955V5.55815L9.27113 4.55118C8.96363 4.19217 8.94282 3.87693 9.21739 3.49709L9.9939 2.40758L9.25307 1.22035C8.95238 0.713002 9.68312 0.264201 9.99709 0.765924L10.7217 1.9492C10.8896 2.23902 11 2.52885 11 2.88598V8.30808C11 9.19281 10.5331 9.66532 9.64053 9.66532H8.103V11.0026H8.2823C8.57741 11.0026 8.80363 11.2145 8.80363 11.4833C8.80363 11.7558 8.57741 12 8.2823 12H0.512781ZM2.13288 5.34506C2.13288 5.66714 2.35556 5.87659 2.70377 5.87659H6.10648C6.45843 5.87659 6.67925 5.66714 6.67925 5.34506V1.98003C6.67925 1.65978 6.45843 1.45892 6.10648 1.45892H2.70377C2.35556 1.45892 2.13288 1.65978 2.13288 1.98003V5.34506Z" fill="white"/>
</svg>
