<svg width="13" height="11" viewBox="0 0 13 11" fill="none" xmlns="http://www.w3.org/2000/svg">
<path d="M0 5.50002C0 5.71542 0.090615 5.96781 0.323131 6.18498L5.05427 10.5836C5.36595 10.8722 5.6244 11 5.94523 11C6.40658 11 6.74465 10.6607 6.74465 10.2101V7.96388H11.537C12.4596 7.96388 13 7.44376 13 6.54164V4.47495C13 3.5728 12.4596 3.05057 11.537 3.05057H6.74465V0.815213C6.74465 0.364671 6.40658 0 5.93544 0C5.61889 0 5.39691 0.128457 5.05427 0.446524L0.32098 4.81123C0.0846376 5.03326 0 5.27549 0 5.50002Z" fill="#42CA68"/>
</svg>
