<svg width="16" height="11" viewBox="0 0 16 11" fill="none" xmlns="http://www.w3.org/2000/svg">
<path d="M11.2614 0.138032C10.8878 0.0464782 10.4405 0 9.93152 0C8.47729 0 7.44528 0.289447 6.86344 0.860599C6.42577 1.2909 6.3993 1.72543 6.40004 1.83389V8.8328C6.3993 8.94125 6.42577 9.37577 6.86344 9.80536C7.44528 10.3772 8.47729 10.6667 9.93152 10.6667C10.4398 10.6667 10.887 10.6202 11.26 10.5293C13.5417 10.0476 16 7.92711 16 5.33333C16 2.74097 13.5425 0.619743 11.2614 0.138032Z" fill="#B7B4B5"/>
<path d="M5.22638 8.69409C5.19666 8.57896 5.0791 8.50921 4.96683 8.54104L3.33764 8.98667L1.21843 9.5657L0.157832 9.85624C0.0449036 9.88671 -0.0231354 10.0066 0.00724292 10.1217L0.10698 10.5057C0.137358 10.6209 0.253584 10.6899 0.367172 10.6595L1.9145 10.2362L3.47897 9.80816L5.17617 9.34356C5.28844 9.31308 5.35646 9.19322 5.32609 9.07741L5.22638 8.69409Z" fill="#B7B4B5"/>
<path d="M0.10676 4.10508C0.13714 4.22087 0.253371 4.28994 0.366964 4.25947L1.65808 3.90669L2.59193 3.65074L5.17617 2.94381C5.28844 2.91402 5.35647 2.7935 5.32609 2.67771L5.22638 2.29514C5.19666 2.17936 5.07909 2.10961 4.96682 2.14076L4.49991 2.26805L0.876794 3.25936L0.157614 3.45572C0.0446813 3.48687 -0.0227001 3.60671 0.00701902 3.7225L0.10676 4.10508Z" fill="#B7B4B5"/>
<path d="M5.22638 6.56121C5.19666 6.44539 5.07909 6.37632 4.96682 6.40747L4.27734 6.59575L4.23506 6.60728L3.70011 6.75425L1.73406 7.29137L0.157614 7.72283C0.0446813 7.75331 -0.0227001 7.87387 0.00701902 7.98901L0.10676 8.37171C0.13714 8.48753 0.253371 8.55661 0.366964 8.52613L1.5795 8.19424L2.8561 7.84475L5.17617 7.21077C5.28844 7.17961 5.35647 7.06041 5.32609 6.94391L5.22638 6.56121Z" fill="#B7B4B5"/>
<path d="M5.22638 4.42784C5.19666 4.31206 5.07909 4.24299 4.96682 4.27414L3.32369 4.72307L2.23728 5.02031L0.157614 5.58908C0.0446813 5.62023 -0.0227001 5.7394 0.00701902 5.85586L0.10676 6.23842C0.13714 6.3542 0.253371 6.42327 0.366964 6.3928L2.80657 5.72517L4.14922 5.35818L5.17617 5.07787C5.28844 5.04604 5.35647 4.92686 5.32609 4.81108L5.22638 4.42784Z" fill="#B7B4B5"/>
</svg>
