<svg width="16" height="11" viewBox="0 0 16 11" fill="none" xmlns="http://www.w3.org/2000/svg">
<path d="M15.488 3.56225C15.488 3.56225 15.3286 3.20511 15.1316 3.20511H13.2957C13.0993 3.20511 12.94 3.36539 12.94 3.56225V3.90781H12.4395C12.4395 3.56651 12.4395 3.35199 12.4395 3.33127C12.4395 3.20511 12.3088 3.21669 12.3088 3.21669H11.1935C11.1935 1.46573 10.3111 1.47183 10.3111 1.47183H8.3378V0.877002H10.3111V0H3.76845V0.877002H5.91994V1.47183C5.91994 1.47183 4.82352 1.47183 3.93933 1.47183L2.74864 2.38418H1.82555C1.62852 2.38418 1.46918 2.54385 1.46918 2.74071V5.03042H0.876268V2.58469H0V8.72552H0.876268V6.19752H1.46918V8.5689C1.46918 8.76575 1.62852 8.92542 1.82555 8.92542H2.74864L5.64507 11C5.64507 11 10.8815 11 11.7055 11C12.5283 11 12.4395 10.2973 12.4395 10.2973C12.4395 10.2973 12.4395 9.8719 12.4395 9.23015H12.94V10.0182C12.94 10.2156 13.0993 10.3753 13.2957 10.3753H15.1316C15.3286 10.3753 15.488 10.0182 15.488 10.0182L16 8.52441V5.05662L15.488 3.56225Z" fill="#B7B4B5"/>
</svg>
