<svg width="13" height="11" viewBox="0 0 13 11" fill="none" xmlns="http://www.w3.org/2000/svg">
<path d="M13 5.50002C13 5.71542 12.9094 5.96781 12.6769 6.18498L7.94573 10.5836C7.63405 10.8722 7.3756 11 7.05477 11C6.59342 11 6.25535 10.6607 6.25535 10.2101V7.96388H1.46301C0.54036 7.96388 9.53674e-07 7.44376 9.53674e-07 6.54164V4.47495C9.53674e-07 3.5728 0.54036 3.05057 1.46301 3.05057H6.25535V0.815213C6.25535 0.364671 6.59342 0 7.06456 0C7.38111 0 7.60309 0.128457 7.94573 0.446524L12.679 4.81123C12.9154 5.03326 13 5.27549 13 5.50002Z" fill="#B7B4B5"/>
</svg>
