<svg width="10" height="13" viewBox="0 0 10 13" fill="none" xmlns="http://www.w3.org/2000/svg">
<path d="M6.15022 3.54497C6.12221 3.53003 6.10073 3.51603 6.08859 3.50015C6.01201 3.40583 5.96251 3.27322 5.93263 3.14714C6.51908 2.91741 6.93838 2.32348 6.93838 1.62494C6.93838 0.726555 6.24827 0 5.3966 0C4.54587 0 3.85576 0.726555 3.85576 1.62494C3.85576 2.32348 4.27506 2.91741 4.86151 3.14714C4.82976 3.27322 4.78213 3.40583 4.70556 3.50015C4.51132 3.73642 2.3887 3.7056 2.43539 6.92933C3.41312 5.90767 4.66728 4.71138 6.15022 3.54497Z" fill="#B7B4B5"/>
<path d="M2.5661 8.62339C2.88081 11.002 3.63535 12.1245 4.03503 12.2449C4.49355 12.3822 5.00155 12.2832 5.12762 12.0834C5.41711 11.6183 3.75394 9.72349 4.1611 9.38076C4.33292 9.23601 5.09307 9.21733 5.39656 9.2164C5.70006 9.21733 6.45927 9.23601 6.63203 9.38076C7.03825 9.72349 5.37602 11.6183 5.66551 12.0834C5.79158 12.2832 6.29772 12.3822 6.75903 12.2449C7.14938 12.1263 7.88431 11.0431 8.20742 8.75881C6.10068 8.4441 3.93044 8.5188 2.5661 8.62339Z" fill="#B7B4B5"/>
<path d="M3.52142 7.41775C4.86895 7.35611 6.60308 7.36732 8.32508 7.62134C8.33535 7.45884 8.34563 7.29168 8.35216 7.11891C8.42407 5.35858 7.8731 4.51716 7.29599 4.08011C5.80932 5.20448 4.53184 6.38582 3.52142 7.41775Z" fill="#B7B4B5"/>
<path d="M9.5073 2.56439C9.76691 2.40564 9.85469 2.05544 9.70247 1.78275C9.55306 1.51192 9.22248 1.41854 8.96288 1.5773C7.95526 2.19552 7.01488 2.86417 6.15015 3.54496C6.33691 3.63741 6.8253 3.72426 7.29596 4.08006C7.99074 3.55523 8.72848 3.04254 9.5073 2.56439Z" fill="#B7B4B5"/>
<path d="M9.57181 7.85293C9.16185 7.75861 8.74348 7.68297 8.32512 7.62134C8.29804 8.03037 8.25695 8.40859 8.20746 8.75879C8.59033 8.81576 8.97041 8.88485 9.34395 8.97077C9.38223 8.97824 9.42145 8.98291 9.45881 8.98291C9.70908 8.98291 9.9332 8.79894 9.98736 8.53186C10.0518 8.22368 9.8641 7.91831 9.57181 7.85293Z" fill="#B7B4B5"/>
<path d="M2.45872 7.48311C2.45218 7.36358 2.44564 7.24311 2.44004 7.1189C2.43724 7.05353 2.43724 6.99189 2.43537 6.92932C2.23553 7.13944 2.04596 7.34116 1.86853 7.53634C1.45764 7.9846 1.11585 8.3815 0.843172 8.70929C0.403333 9.23693 0.150269 9.57592 0.113849 9.62542C-0.0701177 9.87476 -0.0262245 10.2334 0.210037 10.4276C0.309024 10.5079 0.425747 10.5472 0.541544 10.5472C0.703098 10.5472 0.863715 10.4715 0.970173 10.3268C0.982313 10.309 1.48379 9.63663 2.37561 8.63925H2.37654C2.43724 8.63271 2.50075 8.62897 2.56611 8.62337C2.55958 8.56734 2.55303 8.50851 2.54556 8.45154C2.50914 8.1471 2.47927 7.82585 2.45872 7.48311Z" fill="#B7B4B5"/>
</svg>
